<?xml version="1.0" encoding="UTF-8"?>
<svg xmlns="http://www.w3.org/2000/svg" version="1.1" viewBox="0 0 54.54 13.65">
  <defs>
    <style>
      .cls-1 {
        fill: #231f20;
      }

      .cls-2 {
        fill: #2e3690;
        fill-rule: evenodd;
      }
    </style>
  </defs>
  <!-- Generator: Adobe Illustrator 28.7.1, SVG Export Plug-In . SVG Version: 1.2.0 Build 142)  -->
  <g>
    <g id="Layer_1">
      <path class="cls-2" d="M43.35,0h8.73c1.35,0,2.46,1.1,2.46,2.46v8.73c0,1.35-1.11,2.46-2.46,2.46h-8.73c-1.35,0-2.46-1.1-2.46-2.46V2.46c0-1.35,1.1-2.46,2.46-2.46h0ZM45.28,6.44h0v-3.29c-.63.04-1.23.26-1.46.98-.04.09-.08.18-.11.28v4.13c0,1.07.87,1.94,1.94,1.94h1.69c1.07,0,1.94-.87,1.94-1.94V3.18h-1.6v4.57c0,.89-.54,1.26-1.2,1.26h0c-.66,0-1.2-.27-1.2-1.26v-1.3h0ZM51.73,7.18V3.17c-.78.05-1.53.39-1.54,1.69v.58h0v2.75h0v.58c.11.93.75,1.64,1.54,1.69v-3.29h0Z"/>
      <g>
        <path class="cls-1" d="M4.46,12.64c-.59,0-1.16-.05-1.71-.14-.55-.1-1.06-.24-1.52-.42-.46-.19-.87-.41-1.23-.66l.72-1.94c.34.22.71.42,1.1.58.39.17.82.29,1.26.38.45.09.91.14,1.38.14.77,0,1.32-.12,1.66-.35s.51-.53.51-.9c0-.21-.05-.39-.16-.54-.11-.14-.28-.27-.51-.38s-.54-.2-.93-.27l-1.81-.38c-1.02-.22-1.78-.59-2.27-1.11S.21,5.45.21,4.61c0-.71.19-1.34.58-1.88.38-.54.92-.95,1.61-1.25.69-.29,1.49-.44,2.39-.44.51,0,1.01.05,1.49.14.48.1.92.24,1.34.43.41.19.76.42,1.05.67l-.72,1.86c-.43-.35-.91-.61-1.45-.78s-1.12-.26-1.74-.26c-.45,0-.83.06-1.14.18-.31.12-.55.28-.71.49s-.24.46-.24.74.11.54.33.74c.22.19.61.35,1.16.46l1.79.38c1.06.22,1.84.58,2.36,1.08s.78,1.15.78,1.96c0,.69-.19,1.31-.58,1.84s-.92.94-1.61,1.23c-.69.29-1.5.43-2.44.43h0Z"/>
        <path class="cls-1" d="M13.14,12.64c-.6,0-1.12-.11-1.57-.33s-.8-.52-1.06-.9-.38-.81-.38-1.3c0-.58.15-1.03.45-1.36.3-.33.78-.57,1.45-.72s1.55-.22,2.66-.22h.85v1.25h-.83c-.41,0-.75.02-1.04.05s-.52.09-.7.17-.31.18-.39.3c-.08.12-.12.27-.12.44,0,.29.1.53.31.72s.5.29.89.29c.31,0,.59-.07.83-.21.25-.14.44-.33.58-.58.14-.25.21-.54.21-.88v-1.82c0-.47-.11-.8-.32-1-.21-.2-.58-.3-1.1-.3-.42,0-.86.06-1.34.19s-.94.33-1.4.61l-.66-1.6c.28-.19.61-.36,1-.51.39-.15.8-.26,1.25-.34.44-.08.86-.12,1.24-.12.82,0,1.5.12,2.04.36s.94.61,1.2,1.11.39,1.14.39,1.9v4.64h-2.26v-1.57h.11c-.06.35-.2.66-.41.91-.21.26-.47.46-.78.6-.32.14-.68.22-1.1.22h0Z"/>
        <path class="cls-1" d="M19.39,12.48v-7.84h2.37v1.47h-.18c.23-.53.6-.94,1.09-1.22s1.04-.42,1.65-.42c.64,0,1.16.12,1.56.36s.7.61.9,1.1c.2.49.3,1.11.3,1.86v4.7h-2.42v-4.61c0-.36-.04-.66-.13-.88s-.22-.39-.39-.5c-.18-.11-.4-.16-.66-.16-.34,0-.64.07-.89.22s-.45.35-.58.61c-.14.26-.21.57-.21.94v4.38h-2.42.01Z"/>
        <path class="cls-1" d="M33.14,12.64c-.59,0-1.16-.05-1.71-.14-.55-.1-1.06-.24-1.52-.42-.46-.19-.87-.41-1.23-.66l.72-1.94c.34.22.71.42,1.1.58.39.17.82.29,1.26.38.45.09.91.14,1.38.14.77,0,1.32-.12,1.66-.35s.51-.53.51-.9c0-.21-.05-.39-.16-.54-.11-.14-.28-.27-.51-.38s-.54-.2-.93-.27l-1.81-.38c-1.02-.22-1.78-.59-2.27-1.11s-.74-1.2-.74-2.04c0-.71.19-1.34.58-1.88.38-.54.92-.95,1.61-1.25.69-.29,1.49-.44,2.39-.44.51,0,1.01.05,1.49.14.48.1.92.24,1.34.43.41.19.76.42,1.05.67l-.72,1.86c-.43-.35-.91-.61-1.45-.78s-1.12-.26-1.74-.26c-.45,0-.83.06-1.14.18-.31.12-.55.28-.71.49s-.24.46-.24.74.11.54.33.74c.22.19.61.35,1.16.46l1.79.38c1.06.22,1.84.58,2.36,1.08s.78,1.15.78,1.96c0,.69-.19,1.31-.58,1.84s-.92.94-1.61,1.23c-.69.29-1.5.43-2.44.43h0Z"/>
      </g>
    </g>
  </g>
</svg>