<?xml version="1.0" encoding="UTF-8"?>
<svg xmlns="http://www.w3.org/2000/svg" version="1.1" viewBox="0 0 74.02 14">
  <defs>
    <style>
      .cls-1 {
        fill: #231f20;
      }

      .cls-2 {
        fill: #427cbf;
      }

      .cls-2, .cls-3 {
        fill-rule: evenodd;
      }

      .cls-3 {
        fill: #2e3192;
      }
    </style>
  </defs>
  <!-- Generator: Adobe Illustrator 28.7.1, SVG Export Plug-In . SVG Version: 1.2.0 Build 142)  -->
  <g>
    <g id="Layer_1">
      <g id="Layer_1-2" data-name="Layer_1">
        <path class="cls-3" d="M62.83,0h8.73c1.35,0,2.46,1.1,2.46,2.46v8.73c0,1.35-1.11,2.46-2.46,2.46h-8.73c-1.35,0-2.46-1.1-2.46-2.46V2.46c0-1.35,1.1-2.46,2.46-2.46h0ZM64.76,6.44h0v-3.29c-.63.04-1.23.26-1.46.98-.04.09-.08.18-.11.28v4.13c0,1.07.87,1.94,1.94,1.94h1.69c1.07,0,1.94-.87,1.94-1.94V3.18h-1.6v4.57c0,.89-.54,1.26-1.2,1.26h0c-.66,0-1.2-.27-1.2-1.26v-1.3h0ZM71.21,7.18V3.17c-.78.05-1.53.39-1.54,1.69v.58h0v2.75h0v.58c.11.93.75,1.64,1.54,1.69v-3.29h0Z"/>
        <g>
          <path class="cls-3" d="M9.86,5.07c.13.98-.41,1.66-1.46,1.58-.16-.01-.32-.07-.46-.16-.45-.3-.65-.87-.7-1.36-.02-.2-.04-.4-.04-.6,0-1.31.51-2.55,1.44-3.47.92-.92,2.17-1.44,3.47-1.44s2.55.51,3.47,1.44,1.44,2.17,1.44,3.47-.51,2.55-1.44,3.47c-.06.06-.12.11-.17.17-.2.18-.45.27-.72.25-.26-.02-.51-.14-.68-.34l-.44-.52c-.34-.4-.3-1,.09-1.35.02-.02.05-.04.07-.07.43-.43.67-1.01.67-1.62s-.24-1.19-.67-1.62c-.43-.43-1.01-.67-1.62-.67s-1.19.24-1.62.67-.67,1.01-.67,1.62c0,.18.02.35.02.54h.02,0Z"/>
          <path class="cls-2" d="M8.89,6.83l-3.03,2.46c-.2.16-.46.24-.71.21-.26-.03-.49-.15-.66-.35l-.43-.52c-.34-.42-.27-1.03.14-1.37l3-2.45v-.13c0-.61-.24-1.19-.67-1.62-.43-.43-1.01-.67-1.62-.67s-1.19.24-1.62.67c-.43.43-.67,1.01-.67,1.62s.24,1.19.67,1.62l.07.07c.39.35.42.95.09,1.35l-.44.52c-.17.2-.41.32-.67.34s-.52-.07-.72-.25c-.06-.06-.12-.11-.18-.17C.52,7.24,0,5.99,0,4.69S.51,2.14,1.44,1.22C2.36.3,3.61-.22,4.91-.22s2.55.51,3.47,1.44c.84.85,1.35,1.96,1.43,3.14,1.25.34,2.3,1.15,2.95,2.26.66,1.13.84,2.46.51,3.72s-1.15,2.33-2.27,2.99c-1.13.66-2.46.84-3.72.51s-2.33-1.15-2.99-2.27c-.04-.07-.08-.14-.12-.21-.12-.24-.15-.51-.06-.76.08-.25.26-.45.5-.57l.61-.29c.47-.23,1.03-.04,1.28.42.02.03.03.06.05.09.31.53.8.9,1.39,1.06.59.15,1.21.07,1.73-.24.53-.31.9-.8,1.06-1.39.15-.59.07-1.21-.24-1.73-.31-.53-.8-.9-1.39-1.06-.08-.02-.16-.04-.24-.05h.03Z"/>
        </g>
        <g>
          <path class="cls-1" d="M23.94,12.64c-.59,0-1.16-.05-1.71-.14-.55-.1-1.06-.24-1.52-.42-.46-.19-.87-.41-1.23-.66l.72-1.94c.34.22.71.42,1.1.58.39.17.82.29,1.26.38.45.09.91.14,1.38.14.77,0,1.32-.12,1.66-.35s.51-.53.51-.9c0-.21-.05-.39-.16-.54-.11-.14-.28-.27-.51-.38s-.54-.2-.93-.27l-1.81-.38c-1.02-.22-1.78-.59-2.27-1.11s-.74-1.2-.74-2.04c0-.71.19-1.34.58-1.88.38-.54.92-.95,1.61-1.25.69-.29,1.49-.44,2.39-.44.51,0,1.01.05,1.49.14.48.1.92.24,1.34.43.41.19.76.42,1.05.67l-.72,1.86c-.43-.35-.91-.61-1.45-.78s-1.12-.26-1.74-.26c-.45,0-.83.06-1.14.18-.31.12-.55.28-.71.49s-.24.46-.24.74.11.54.33.74c.22.19.61.35,1.16.46l1.79.38c1.06.22,1.84.58,2.36,1.08s.78,1.15.78,1.96c0,.69-.19,1.31-.58,1.84s-.92.94-1.61,1.23-1.5.43-2.44.43h0Z"/>
          <path class="cls-1" d="M32.62,12.64c-.6,0-1.12-.11-1.57-.33s-.8-.52-1.06-.9-.38-.81-.38-1.3c0-.58.15-1.03.45-1.36.3-.33.78-.57,1.45-.72.67-.15,1.55-.22,2.66-.22h.85v1.25h-.83c-.41,0-.75.02-1.04.05s-.52.09-.7.17-.31.18-.39.3c-.08.12-.12.27-.12.44,0,.29.1.53.31.72s.5.29.89.29c.31,0,.59-.07.83-.21.25-.14.44-.33.58-.58.14-.25.21-.54.21-.88v-1.82c0-.47-.11-.8-.32-1s-.58-.3-1.1-.3c-.42,0-.86.06-1.34.19s-.94.33-1.4.61l-.66-1.6c.28-.19.61-.36,1-.51s.8-.26,1.25-.34c.44-.08.86-.12,1.24-.12.82,0,1.5.12,2.04.36s.94.61,1.2,1.11.39,1.14.39,1.9v4.64h-2.26v-1.57h.11c-.06.35-.2.66-.41.91-.21.26-.47.46-.78.6-.32.14-.68.22-1.1.22h0Z"/>
          <path class="cls-1" d="M38.87,12.48v-7.84h2.37v1.47h-.18c.23-.53.6-.94,1.09-1.22s1.04-.42,1.65-.42c.64,0,1.16.12,1.56.36s.7.61.9,1.1.3,1.11.3,1.86v4.7h-2.42v-4.61c0-.36-.04-.66-.13-.88s-.22-.39-.39-.5c-.18-.11-.4-.16-.66-.16-.34,0-.64.07-.89.22s-.45.35-.58.61c-.14.26-.21.57-.21.94v4.38h-2.42,0Z"/>
          <path class="cls-1" d="M52.62,12.64c-.59,0-1.16-.05-1.71-.14-.55-.1-1.06-.24-1.52-.42-.46-.19-.87-.41-1.23-.66l.72-1.94c.34.22.71.42,1.1.58.39.17.82.29,1.26.38.45.09.91.14,1.38.14.77,0,1.32-.12,1.66-.35s.51-.53.51-.9c0-.21-.05-.39-.16-.54-.11-.14-.28-.27-.51-.38s-.54-.2-.93-.27l-1.81-.38c-1.02-.22-1.78-.59-2.27-1.11s-.74-1.2-.74-2.04c0-.71.19-1.34.58-1.88.38-.54.92-.95,1.61-1.25.69-.29,1.49-.44,2.39-.44.51,0,1.01.05,1.49.14.48.1.92.24,1.34.43.41.19.76.42,1.05.67l-.72,1.86c-.43-.35-.91-.61-1.45-.78s-1.12-.26-1.74-.26c-.45,0-.83.06-1.14.18-.31.12-.55.28-.71.49s-.24.46-.24.74.11.54.33.74c.22.19.61.35,1.16.46l1.79.38c1.06.22,1.84.58,2.36,1.08s.78,1.15.78,1.96c0,.69-.19,1.31-.58,1.84s-.92.94-1.61,1.23c-.69.29-1.5.43-2.44.43h0Z"/>
        </g>
      </g>
    </g>
  </g>
</svg>