<?xml version="1.0" encoding="UTF-8"?>
<svg xmlns="http://www.w3.org/2000/svg" version="1.1" viewBox="0 0 17.02 14.38">
  <defs>
    <style>
      .cls-1 {
        fill: #437dc0;
      }

      .cls-1, .cls-2 {
        fill-rule: evenodd;
      }

      .cls-2 {
        fill: #2e3690;
      }
    </style>
  </defs>
  <!-- Generator: Adobe Illustrator 28.7.1, SVG Export Plug-In . SVG Version: 1.2.0 Build 142)  -->
  <g>
    <g id="Layer_1">
      <g>
        <path class="cls-2" d="M9.86,5.45c.13.98-.41,1.66-1.46,1.58-.16-.01-.32-.07-.46-.16-.45-.3-.65-.87-.7-1.36-.02-.2-.04-.4-.04-.6,0-1.31.51-2.55,1.44-3.47.92-.92,2.17-1.44,3.47-1.44s2.55.51,3.47,1.44,1.44,2.17,1.44,3.47-.51,2.55-1.44,3.47c-.06.06-.12.11-.17.17-.2.18-.45.27-.72.25-.26-.02-.51-.14-.68-.34l-.44-.52c-.34-.4-.3-1,.09-1.35.02-.02.05-.04.07-.07.43-.43.67-1.01.67-1.62s-.24-1.19-.67-1.62c-.43-.43-1.01-.67-1.62-.67s-1.19.24-1.62.67c-.43.43-.67,1.01-.67,1.62,0,.18.02.35.02.54h.02Z"/>
        <path class="cls-1" d="M8.89,7.21l-3.03,2.46c-.2.16-.46.24-.71.21-.26-.03-.49-.15-.66-.35l-.43-.52c-.34-.42-.27-1.03.14-1.37l3-2.45v-.13c0-.61-.24-1.19-.67-1.62-.43-.43-1.01-.67-1.62-.67s-1.19.24-1.62.67c-.43.43-.67,1.01-.67,1.62s.24,1.19.67,1.62l.07.07c.39.35.42.95.09,1.35l-.44.52c-.17.2-.41.32-.67.34s-.52-.07-.72-.25c-.06-.06-.12-.11-.18-.17-.92-.92-1.44-2.17-1.44-3.47S.51,2.52,1.44,1.6C2.36.68,3.61.16,4.91.16s2.55.51,3.47,1.44c.84.85,1.35,1.96,1.43,3.14,1.25.34,2.3,1.15,2.95,2.26.66,1.13.84,2.46.51,3.72s-1.15,2.33-2.27,2.99c-1.13.66-2.46.84-3.72.51s-2.33-1.15-2.99-2.27c-.04-.07-.08-.14-.12-.21-.12-.24-.15-.51-.06-.76.08-.25.26-.45.5-.57l.61-.29c.47-.23,1.03-.04,1.28.42.02.03.03.06.05.09.31.53.8.9,1.39,1.06.59.15,1.21.07,1.73-.24.53-.31.9-.8,1.06-1.39.15-.59.07-1.21-.24-1.73-.31-.53-.8-.9-1.39-1.06-.08-.02-.16-.04-.24-.05h.03Z"/>
      </g>
    </g>
  </g>
</svg>